<svg width="120" height="20" viewBox="0 0 120 20" fill="none" xmlns="http://www.w3.org/2000/svg">
<path d="M3.34 19V5H4.98V19H3.34ZM0.1 19V17.48H8.22V19H0.1ZM0.1 6.51V5H8.22V6.51H0.1ZM4.16 3.04C3.87333 3.04 3.63 2.94333 3.43 2.75C3.23667 2.55 3.14 2.30667 3.14 2.02C3.14 1.72 3.23667 1.47 3.43 1.27C3.63 1.07 3.87333 0.969999 4.16 0.969999C4.46 0.969999 4.70667 1.07 4.9 1.27C5.09333 1.47 5.19 1.72 5.19 2.02C5.19 2.30667 5.09333 2.55 4.9 2.75C4.70667 2.94333 4.46 3.04 4.16 3.04ZM12.2942 19V5H16.5242C17.6442 5 18.5209 5.19333 19.1542 5.58C19.7942 5.96 20.2442 6.45333 20.5042 7.06C20.7709 7.66 20.9042 8.28667 20.9042 8.94C20.9042 9.40667 20.8309 9.87333 20.6842 10.34C20.5376 10.8067 20.2942 11.2333 19.9542 11.62C19.6209 12.0067 19.1776 12.32 18.6242 12.56C18.0776 12.7933 17.4009 12.9167 16.5942 12.93H13.9442V19H12.2942ZM19.0242 19L15.9542 12.65L17.6742 12.54L20.8442 19H19.0242ZM13.9442 11.43H16.5642C17.2576 11.43 17.8009 11.31 18.1942 11.07C18.5942 10.83 18.8776 10.5233 19.0442 10.15C19.2109 9.77667 19.2942 9.39 19.2942 8.99C19.2942 8.63667 19.2142 8.26667 19.0542 7.88C18.9009 7.49333 18.6276 7.16667 18.2342 6.9C17.8409 6.63333 17.2842 6.5 16.5642 6.5H13.9442V11.43ZM24.6184 19V5H32.7184V6.57H26.2684V10.98H30.6884V12.54H26.2684V17.43H33.1484V19H24.6184ZM36.9427 19V5H38.7427L40.8527 13.47C40.9327 13.7967 40.9927 14.0667 41.0327 14.28C41.0793 14.4867 41.116 14.7033 41.1427 14.93C41.1693 14.7033 41.206 14.4867 41.2527 14.28C41.2993 14.0667 41.3627 13.7967 41.4427 13.47L43.5627 5H45.3227V19H43.8027V10.06C43.8027 9.92 43.8027 9.72667 43.8027 9.48C43.8093 9.23333 43.8227 9 43.8427 8.78C43.796 9.00667 43.7493 9.22667 43.7027 9.44C43.656 9.64667 43.606 9.85333 43.5527 10.06L41.2827 19H40.9927L38.7127 10.06C38.666 9.85333 38.616 9.64333 38.5627 9.43C38.516 9.21667 38.4693 9 38.4227 8.78C38.436 9 38.446 9.23333 38.4527 9.48C38.4593 9.72667 38.4627 9.92 38.4627 10.06V19H36.9427ZM66.1111 19.24C65.2244 19.24 64.4644 19.04 63.8311 18.64C63.2044 18.2333 62.6911 17.6867 62.2911 17C61.8978 16.3067 61.6044 15.53 61.4111 14.67C61.2244 13.8033 61.1311 12.9133 61.1311 12C61.1311 11.0667 61.2278 10.1667 61.4211 9.3C61.6211 8.43333 61.9244 7.66 62.3311 6.98C62.7378 6.29333 63.2544 5.75333 63.8811 5.36C64.5078 4.96 65.2511 4.76 66.1111 4.76C66.8444 4.76 67.4544 4.87667 67.9411 5.11C68.4344 5.33667 68.8378 5.63333 69.1511 6C69.4644 6.36667 69.7311 6.75333 69.9511 7.16L68.4911 8C68.2444 7.54 67.9411 7.13667 67.5811 6.79C67.2211 6.44333 66.7311 6.27 66.1111 6.27C65.5111 6.27 65.0011 6.44333 64.5811 6.79C64.1678 7.13 63.8311 7.58333 63.5711 8.15C63.3178 8.71 63.1311 9.32667 63.0111 10C62.8978 10.6733 62.8411 11.34 62.8411 12C62.8411 12.7333 62.9044 13.4433 63.0311 14.13C63.1578 14.8167 63.3511 15.43 63.6111 15.97C63.8778 16.51 64.2178 16.94 64.6311 17.26C65.0444 17.5733 65.5378 17.73 66.1111 17.73C66.9244 17.73 67.5578 17.4333 68.0111 16.84C68.4711 16.24 68.7011 15.45 68.7011 14.47V13.76H66.1611V12.27H70.4211V13.91C70.4211 15.07 70.2278 16.0467 69.8411 16.84C69.4611 17.6267 68.9444 18.2233 68.2911 18.63C67.6444 19.0367 66.9178 19.24 66.1111 19.24ZM78.1053 19.24C77.2053 19.24 76.4186 19.0567 75.7453 18.69C75.0786 18.3233 74.5586 17.7367 74.1853 16.93C73.812 16.1167 73.6253 15.04 73.6253 13.7V5H75.2653V13.7C75.2653 14.7667 75.3953 15.5933 75.6553 16.18C75.9153 16.76 76.262 17.1633 76.6953 17.39C77.1286 17.6167 77.5986 17.73 78.1053 17.73C78.612 17.73 79.082 17.6167 79.5153 17.39C79.9486 17.1633 80.2953 16.76 80.5553 16.18C80.8153 15.5933 80.9453 14.7667 80.9453 13.7V5H82.5953V13.7C82.5953 15.0333 82.4086 16.1067 82.0353 16.92C81.662 17.7333 81.1386 18.3233 80.4653 18.69C79.792 19.0567 79.0053 19.24 78.1053 19.24ZM76.4053 3.23C76.112 3.23 75.8653 3.13 75.6653 2.93C75.4653 2.73 75.3653 2.48333 75.3653 2.19C75.3653 1.89667 75.4653 1.65333 75.6653 1.46C75.8653 1.26 76.112 1.16 76.4053 1.16C76.7053 1.16 76.952 1.26 77.1453 1.46C77.3453 1.65333 77.4453 1.89667 77.4453 2.19C77.4453 2.48333 77.3453 2.73 77.1453 2.93C76.952 3.13 76.7053 3.23 76.4053 3.23ZM79.8153 3.23C79.522 3.23 79.2753 3.13 79.0753 2.93C78.8753 2.73 78.7753 2.48333 78.7753 2.19C78.7753 1.89667 78.8753 1.65333 79.0753 1.46C79.2753 1.26 79.522 1.16 79.8153 1.16C80.1153 1.16 80.362 1.26 80.5553 1.46C80.7553 1.65333 80.8553 1.89667 80.8553 2.19C80.8553 2.48333 80.7553 2.73 80.5553 2.93C80.362 3.13 80.1153 3.23 79.8153 3.23ZM86.2395 19V5H87.8695L92.7095 14.96C92.7562 15.0467 92.8129 15.1633 92.8795 15.31C92.9462 15.45 93.0029 15.5733 93.0495 15.68C93.0429 15.4933 93.0362 15.35 93.0295 15.25C93.0229 15.1433 93.0195 15.04 93.0195 14.94V5H94.6195V19H93.0195L88.1695 9.18C88.1229 9.07333 88.0629 8.95 87.9895 8.81C87.9229 8.66333 87.8662 8.53667 87.8195 8.43C87.8329 8.58333 87.8395 8.72 87.8395 8.84C87.8462 8.95333 87.8495 9.06 87.8495 9.16V19H86.2395ZM97.4438 19L102.054 5H103.424L108.064 19H106.364L103.124 8.8C103.104 8.72667 103.067 8.60333 103.014 8.43C102.96 8.25667 102.907 8.08 102.854 7.9C102.8 7.72 102.764 7.57667 102.744 7.47C102.717 7.57667 102.677 7.72 102.624 7.9C102.577 8.08 102.53 8.25667 102.484 8.43C102.437 8.59667 102.4 8.72 102.374 8.8L99.1838 19H97.4438ZM99.7738 15.51L100.254 14.04H105.244L105.724 15.51H99.7738ZM110.888 19V5H112.538V17.42H119.218V19H110.888Z" fill="black"/>
</svg>
